<svg width="38" height="51" viewBox="0 0 38 51" fill="none" xmlns="http://www.w3.org/2000/svg">
<path fill-rule="evenodd" clip-rule="evenodd" d="M31.2933 40.2123V50.9999H6.70508V40.2123C6.70508 37.1262 10.7217 33.603 13.411 32.1521H24.5874C27.3011 33.6284 31.2933 37.1617 31.2933 40.2123Z" fill="#06893A"/>
<path fill-rule="evenodd" clip-rule="evenodd" d="M12.6564 51H24.9048L26.8228 33.6175C26.6015 33.4031 24.5875 32.0221 24.5875 32.1663L23.8051 40.7021L13.8773 41.0573L13.1948 32.1663C13.1948 32.1663 11.6469 33.0645 11.1758 33.6175L12.6564 51Z" fill="#FFD399"/>
<path fill-rule="evenodd" clip-rule="evenodd" d="M24.5859 32.3154C29.4117 30.6242 33.2238 26.8034 34.8747 21.9912C35.1474 22.1087 35.4484 22.1739 35.7647 22.1739C36.9992 22.1739 38 21.1812 38 19.9565V17.7391C38 16.5145 36.9992 15.5217 35.7647 15.5217L35.7281 15.522C35.1531 6.85408 27.8834 0 19 0C10.1166 0 2.84692 6.85408 2.27194 15.522C2.25975 15.5218 2.24753 15.5217 2.23529 15.5217C1.00078 15.5217 0 16.5145 0 17.7391V19.9565C0 21.1812 1.00078 22.1739 2.23529 22.1739C2.55162 22.1739 2.8526 22.1087 3.12534 21.9912C4.77624 26.8034 8.58828 30.6242 13.4141 32.3154C13.5012 35.3015 15.9687 37.6957 19 37.6957C22.0313 37.6957 24.4988 35.3015 24.5859 32.3154Z" fill="#E7E9E9"/>
<path fill-rule="evenodd" clip-rule="evenodd" d="M17.1905 29.2116C16.5185 28.9287 16.129 28.262 16.1715 27.5781L16.957 25.5L20.0434 26.7996L19.0822 28.8037C18.6159 29.3091 17.8622 29.4945 17.1905 29.2116Z" fill="#D6897D"/>
<path fill-rule="evenodd" clip-rule="evenodd" d="M14.5301 24.3911C14.5301 26.2284 13.0293 27.7176 11.1779 27.7176C9.32581 27.7176 7.82422 26.2284 7.82422 24.3911C7.82422 22.5547 9.32581 21.0654 11.1779 21.0654C13.0293 21.0654 14.5301 22.5547 14.5301 24.3911Z" fill="#E3B0A8"/>
<path fill-rule="evenodd" clip-rule="evenodd" d="M30.1766 24.3911C30.1766 26.2284 28.6758 27.7176 26.8244 27.7176C24.9723 27.7176 23.4707 26.2284 23.4707 24.3911C23.4707 22.5547 24.9723 21.0654 26.8244 21.0654C28.6758 21.0654 30.1766 22.5547 30.1766 24.3911Z" fill="#E3B0A8"/>
<path d="M19.9212 19.4396C19.6191 19.5026 19.3228 19.3107 19.2594 19.0111C19.1959 18.7115 19.3893 18.4176 19.6913 18.3546C20.4428 18.1979 21.071 18.3185 21.4169 18.894C22.0888 20.0136 21.8547 21.3039 20.7952 22.1976C20.1793 22.7169 19.3149 22.9033 18.7111 22.541C18.447 22.3825 18.3624 22.0417 18.5222 21.7798C18.6819 21.5178 19.0255 21.4339 19.2895 21.5923C19.4217 21.6716 19.7866 21.593 20.0713 21.353C20.7201 20.8057 20.8462 20.1105 20.4567 19.4614C20.4201 19.4004 20.2581 19.3694 19.9212 19.4396Z" fill="#3E3832"/>
<path d="M22.9289 17.6045C22.8541 17.9015 23.0361 18.2025 23.3355 18.2768C23.6349 18.351 23.9383 18.1704 24.0132 17.8734C24.3291 16.62 24.8775 16.0759 25.7064 16.0759C26.5352 16.0759 27.0836 16.62 27.3995 17.8734C27.4744 18.1704 27.7778 18.351 28.0772 18.2768C28.3766 18.2025 28.5586 17.9015 28.4838 17.6045C28.0546 15.9015 27.1128 14.9672 25.7064 14.9672C24.2999 14.9672 23.3581 15.9015 22.9289 17.6045Z" fill="#3E3832"/>
<path fill-rule="evenodd" clip-rule="evenodd" d="M12.862 18.8441C11.3216 18.9442 10.8905 17.0074 11.3546 15.7444C11.4419 15.5037 11.9518 14.4131 12.8546 14.4131C13.7562 14.4131 14.1543 15.0097 14.2097 15.1123C14.8729 16.3449 14.5482 18.7365 12.862 18.8441Z" fill="#3E3832"/>
<path d="M21.7358 25.7479C21.8738 25.4741 21.7619 25.1411 21.4859 25.0042C21.2098 24.8673 20.8742 24.9783 20.7361 25.2521C20.4681 25.7839 19.9228 26.0544 19.0007 26.0544C18.0786 26.0544 17.5332 25.7839 17.2652 25.2521C17.1272 24.9783 16.7915 24.8673 16.5155 25.0042C16.2394 25.1411 16.1275 25.4741 16.2656 25.7479C16.7426 26.6944 17.6875 27.1631 19.0007 27.1631C20.3139 27.1631 21.2587 26.6944 21.7358 25.7479Z" fill="#3E3832"/>
<path d="M19.0714 0C17.3146 0 15.2222 0.690345 14.6723 3.10435C14.1225 5.51835 15.2222 7.26008 16.8719 8.06482C18.5215 8.86957 20.1712 8.86957 20.1712 8.86957C20.1712 8.86957 19.6224 8.50626 19.1453 7.76087C18.6681 7.01547 18.4143 6.12495 18.4143 6.12495C18.4143 6.12495 19.3484 7.31246 20.2629 7.76087C21.1774 8.20928 22.3707 8.06482 22.3707 8.06482C22.3707 8.06482 21.3805 7.74422 21.3805 6.65217C21.3805 5.56013 23.4705 5.23952 23.4705 3.02213C23.4705 0.804742 20.8282 0 19.0714 0Z" fill="#FFD399"/>
</svg>
