<svg width="78" height="119" viewBox="0 0 78 119" fill="none" xmlns="http://www.w3.org/2000/svg">
<path fill-rule="evenodd" clip-rule="evenodd" d="M60.9721 56.6033C59.0044 62.9733 55.1521 68.2609 50.2152 71.4968L50.468 74.3335L50.4666 74.4489L47.7978 97.8318H30.872L30.8017 97.3405L27.5296 74.4086L27.6508 71.5405C22.6889 68.3132 18.8148 63.0169 16.8359 56.63C16.7688 56.6363 16.7008 56.6395 16.632 56.6395C15.352 56.6395 14.3379 55.5236 14.3379 54.1717V46.5219C14.3379 45.6157 14.7935 44.8151 15.4794 44.3856C16.5496 30.1042 26.6034 18.8799 38.8994 18.8799C51.1622 18.8799 61.1957 30.0437 62.3115 44.2698C63.1125 44.6582 63.6614 45.526 63.6614 46.5219V54.1717C63.6614 55.5242 62.6488 56.6395 61.3673 56.6395C61.2323 56.6395 61.1003 56.6271 60.9721 56.6033Z" fill="#E7E9E9"/>
<path fill-rule="evenodd" clip-rule="evenodd" d="M49.6201 72.2883C49.5238 77.3947 44.8062 82.6335 39.0007 82.6335C33.1699 82.6335 28.4365 77.349 28.3803 72.2217C25.3591 72.9856 20.7475 75.2893 16.9411 79.1393C13.2551 82.8676 10.3242 88.4717 10.3242 92.8191V119H67.6772V92.8191C67.6772 88.4629 64.6831 82.8492 60.9289 79.1167C57.1748 75.3842 52.6605 73.1116 49.6201 72.2883Z" fill="#32414F"/>
<path fill-rule="evenodd" clip-rule="evenodd" d="M49.6172 71.2619L49.6751 71.1626C54.7531 67.9219 58.6933 62.4626 60.593 55.8658C60.8255 55.9949 61.0882 56.0675 61.3661 56.0675C62.3171 56.0675 63.0867 55.2207 63.0867 54.1718V46.522C63.0867 45.9237 62.6461 45.3084 61.7649 44.6763L38.9772 28.606L16.028 44.7449C15.2828 45.3866 14.9102 45.9789 14.9102 46.522V54.1718C14.9102 55.2207 15.6818 56.0675 16.6308 56.0675C16.8411 56.0675 17.0426 56.0261 17.2288 55.9502C19.1494 62.5502 23.1146 68.0036 28.2165 71.2228L28.2354 71.2619L28.2165 72.0867H26.9879C22.0926 71.9724 11.4706 60.6444 11.4707 45.8415C11.4708 27.4501 22.5811 13.7058 38.9772 13.731C55.3744 13.7573 66.5279 27.4492 66.5279 45.8415C66.5279 61.7887 55.1329 71.6893 50.4706 72.0867C49.3641 72.0586 49.6172 72.0867 49.6172 72.0867V71.2619Z" fill="#B26D14"/>
<path fill-rule="evenodd" clip-rule="evenodd" d="M30.8003 50.1988C29.3182 50.3184 28.9033 47.9774 29.3499 46.4486C29.4339 46.1588 29.9246 44.8396 30.7932 44.8396C31.6608 44.8396 32.0439 45.5607 32.0971 45.6847C32.7353 47.1751 32.4218 50.0671 30.8003 50.1988Z" fill="#3E3832"/>
<path fill-rule="evenodd" clip-rule="evenodd" d="M47.9902 50.1988C49.4724 50.3184 49.8873 47.9774 49.4406 46.4486C49.3567 46.1588 48.866 44.8396 47.9974 44.8396C47.1298 44.8396 46.7467 45.5607 46.6934 45.6847C46.0553 47.1751 46.3687 50.0671 47.9902 50.1988Z" fill="#3E3832"/>
<path d="M39.9457 52.5058C40.832 52.3544 41.4374 52.4494 41.6542 52.7447C42.4724 53.8609 42.2107 55.0419 40.8068 56.0113C40.0687 56.5208 39.0527 56.7001 38.5149 56.4359C38.2519 56.3067 37.9443 56.4387 37.8279 56.7306C37.7115 57.0225 37.8303 57.3639 38.0934 57.4931C38.9823 57.9298 40.3494 57.6885 41.357 56.9929C43.2647 55.6755 43.7013 53.7056 42.4618 52.0148C41.9373 51.3003 41.0088 51.1545 39.7872 51.3632C39.5029 51.4118 39.308 51.7069 39.3517 52.0224C39.3955 52.338 39.6614 52.5544 39.9457 52.5058Z" fill="#3E3832"/>
<path d="M46.3556 60.1773C46.3036 60.2873 46.1842 60.498 45.9923 60.7755C45.6676 61.2453 45.2597 61.7162 44.7644 62.1554C43.2884 63.4642 41.3672 64.2209 38.9221 64.1517C36.5379 64.0842 34.6253 63.3391 33.1258 62.1376C32.5753 61.6965 32.1207 61.2241 31.7574 60.7532C31.5432 60.4755 31.4094 60.2649 31.3509 60.1552C31.2101 59.8913 30.8642 59.7827 30.5783 59.9125C30.2923 60.0424 30.1746 60.3616 30.3153 60.6255C30.4001 60.7845 30.565 61.0441 30.8172 61.371C31.2312 61.9076 31.7461 62.4427 32.3691 62.9419C34.0619 64.2983 36.2252 65.141 38.8867 65.2164C41.6583 65.2948 43.874 64.422 45.5641 62.9235C46.1292 62.4225 46.5937 61.8861 46.9653 61.3484C47.1914 61.0215 47.3384 60.7621 47.4134 60.6035C47.5409 60.3339 47.4075 60.02 47.1154 59.9023C46.8233 59.7846 46.4831 59.9077 46.3556 60.1773Z" fill="#3E3832"/>
</svg>
