<svg width="110" height="102" viewBox="0 0 110 102" fill="none" xmlns="http://www.w3.org/2000/svg">
<path fill-rule="evenodd" clip-rule="evenodd" d="M79.49 14H32.508C30.569 14 29 15.5869 29 17.5475V77.4535C29 77.8192 29.055 78.1747 29.157 78.5061C29.328 79.0626 29.632 79.5586 30.03 79.9616C30.107 80.0384 30.191 80.1182 30.28 80.1889C30.797 80.6232 31.443 80.9061 32.148 80.9808C32.268 80.9929 32.388 81 32.508 81H79.49C81.429 81 83 79.4111 83 77.4535V17.5475C83 15.5869 81.429 14 79.49 14Z" fill="#59514B"/>
<path fill-rule="evenodd" clip-rule="evenodd" d="M34 28.7714V73.1195C34 74.7103 35.2508 76 36.7943 76H74.2073C75.7492 76 77 74.7103 77 73.1195V21.8805C77 20.2897 75.7492 19 74.2073 19H44.3519L34 28.7714Z" fill="white"/>
<path fill-rule="evenodd" clip-rule="evenodd" d="M44.3519 19V25.8052C44.3519 27.4437 43.0204 28.7714 41.3773 28.7714H34L44.3519 19Z" fill="#C6C2BF"/>
<path fill-rule="evenodd" clip-rule="evenodd" d="M49.1289 40.9855H67.4437V39.3569H49.1289V40.9855Z" fill="#B7B1A9"/>
<path fill-rule="evenodd" clip-rule="evenodd" d="M49.1289 46.6855H67.4437V45.0569H49.1289V46.6855Z" fill="#B7B1A9"/>
<path fill-rule="evenodd" clip-rule="evenodd" d="M49.1289 51.5712H67.4437V49.9426H49.1289V51.5712Z" fill="#B7B1A9"/>
<path fill-rule="evenodd" clip-rule="evenodd" d="M49.1289 57.2714H67.4437V55.6428H49.1289V57.2714Z" fill="#B7B1A9"/>
<path fill-rule="evenodd" clip-rule="evenodd" d="M47.5362 37.7322H46.6935H44.3973H43.5547V38.6215V40.9143V41.8036H44.3973H46.6935H47.5362V40.9143V38.6215V37.7322ZM44.3973 40.9143H46.6935V38.6215H44.3973V40.9143Z" fill="#B7B1A9"/>
<path fill-rule="evenodd" clip-rule="evenodd" d="M47.5362 43.2949H46.6935H44.3973H43.5547V44.1845V46.4768V47.3664H44.3973H46.6935H47.5362V46.4768V44.1845V43.2949ZM44.3973 46.4768H46.6935V44.1845H44.3973V46.4768Z" fill="#B7B1A9"/>
<path fill-rule="evenodd" clip-rule="evenodd" d="M47.5362 48.8579H46.6935H44.3973H43.5547V49.7476V52.0396V52.9293H44.3973H46.6935H47.5362V52.0396V49.7476V48.8579ZM44.3973 52.0396H46.6935V49.7476H44.3973V52.0396Z" fill="#B7B1A9"/>
<path fill-rule="evenodd" clip-rule="evenodd" d="M47.5362 54.4214H46.6935H44.3973H43.5547V55.3109V57.6033V58.4928H44.3973H46.6935H47.5362V57.6033V55.3109V54.4214ZM44.3973 57.6033H46.6935V55.3109H44.3973V57.6033Z" fill="#B7B1A9"/>
<path d="M44.7829 39.1702L46.5521 36.0999L47.5356 37.124L44.8413 41.7999L42.7578 38.5982L43.6941 37.4971L44.7829 39.1702Z" fill="#3E3832"/>
<path d="M46.3537 40.9856L47.5356 41.8797L44.8646 46.6856L42.7578 43.3289L43.8943 42.358L44.7941 43.7918L46.3537 40.9856Z" fill="#3E3832"/>
<path fill-rule="evenodd" clip-rule="evenodd" d="M56.5015 16.2922C55.8902 16.2922 55.3957 15.7812 55.3957 15.1471C55.3957 14.513 55.8902 13.999 56.5015 13.999C57.1098 13.999 57.6062 14.513 57.6062 15.1471C57.6062 15.7812 57.1098 16.2922 56.5015 16.2922ZM63.3276 11.6038H59.2142V10.8152C59.2142 9.26018 57.9985 8 56.5015 8C54.9996 8 53.7868 9.26018 53.7868 10.8152V11.6038H49.6734C47.6459 11.6038 46 13.3113 46 15.4157V20H67V15.4157C67 13.3113 65.355 11.6038 63.3276 11.6038Z" fill="#3E3832"/>
<path fill-rule="evenodd" clip-rule="evenodd" d="M29 53V63.1039V63.977C29 63.977 29.1115 64.6484 29.26 65.6172L32.372 61.2431C33.3283 59.8996 35.1758 59.598 36.4968 60.5698L36.7768 60.7742C38.0988 61.746 38.3956 63.6235 37.4393 64.9669L28.9681 76.8718C28.8159 77.286 28.6555 77.6889 28.493 78.0749C28.1204 78.9603 27.2036 80.2709 26.3264 81.5248C25.377 82.8819 24.4741 84.1726 24.358 84.7857C24.1347 85.9665 23.9115 87 23.9115 87L10 82.1288L14.5775 66.4999C14.6493 66.2545 14.7756 66.0302 14.9483 65.8409C16.5557 64.0843 25.5218 54.7986 27.0413 53.2263C27.1817 53.0801 27.3747 53 27.5777 53H29Z" fill="#E7E9E9"/>
<path fill-rule="evenodd" clip-rule="evenodd" d="M73.9477 67.9565L73.9647 68.2565C74.0467 69.6765 75.2637 70.7625 76.6847 70.6805L85.8937 70.1525C87.3147 70.0705 88.3997 68.8535 88.3187 67.4335L88.3017 67.1335C88.2197 65.7125 87.0017 64.6265 85.5817 64.7085L76.3717 65.2365C74.9517 65.3185 73.8657 66.5365 73.9477 67.9565Z" fill="#E7E9E9"/>
<path fill-rule="evenodd" clip-rule="evenodd" d="M72.0337 63.9983L72.0507 64.2983C72.1327 65.7183 73.3497 66.8043 74.7697 66.7233L83.9797 66.1943C85.3997 66.1133 86.4857 64.8953 86.4047 63.4753L86.3867 63.1753C86.3047 61.7543 85.0877 60.6693 83.6677 60.7503L74.4577 61.2793C73.0377 61.3603 71.9517 62.5783 72.0337 63.9983Z" fill="#E7E9E9"/>
<path fill-rule="evenodd" clip-rule="evenodd" d="M69.6761 60.1199L69.6941 60.4199C69.7751 61.8399 70.9921 62.9259 72.4131 62.8449L81.6221 62.3159C83.0431 62.2349 84.1281 61.0169 84.0471 59.5969L84.0301 59.2969C83.9481 57.8759 82.7311 56.7909 81.3101 56.8719L72.1011 57.4009C70.6801 57.4819 69.5951 58.6999 69.6761 60.1199Z" fill="#E7E9E9"/>
<path fill-rule="evenodd" clip-rule="evenodd" d="M71.1523 53.0917L71.0973 53.3867C70.8353 54.7857 71.7563 56.1318 73.1543 56.3938L82.2213 58.0928C83.6203 58.3548 84.9653 57.4338 85.2283 56.0347L85.2833 55.7397C85.5453 54.3417 84.6243 52.9957 83.2263 52.7337L74.1593 51.0338C72.7603 50.7718 71.4143 51.6937 71.1523 53.0917Z" fill="#E7E9E9"/>
<path fill-rule="evenodd" clip-rule="evenodd" d="M76.8726 59.9082L73.4096 54.6962L71.1016 53.4222L83.9366 53.0222C84.1336 53.0642 98.3016 63.3632 99.4936 65.4092C99.6216 65.6292 99.6976 65.8752 99.7156 66.1292L100.908 82.3362L87.3716 87.0072C87.3716 87.0072 87.1846 85.9252 86.9316 84.7532C86.6076 83.2522 84.2106 76.5352 83.8416 74.5752C83.4736 72.6152 82.2776 69.9772 80.8396 68.5452C78.9586 66.6722 76.8726 59.9082 76.8726 59.9082Z" fill="#E7E9E9"/>
<path fill-rule="evenodd" clip-rule="evenodd" d="M88.5242 71.9672L88.7712 71.7192C89.9382 70.5472 89.9342 68.6502 88.7612 67.4822L76.7252 55.4972C75.5522 54.3292 73.6542 54.3332 72.4862 55.5062L72.2402 55.7542C71.0722 56.9262 71.0772 58.8242 72.2492 59.9912L84.2862 71.9762C85.4592 73.1442 87.3562 73.1402 88.5242 71.9672Z" fill="#E7E9E9"/>
<path fill-rule="evenodd" clip-rule="evenodd" d="M93.9608 64.4763L93.405 65.8518C93.0919 66.6269 93.5438 67.5392 94.4135 67.8905L94.4531 67.9065C95.3236 68.2582 96.2816 67.9156 96.5947 67.1406L97.1505 65.765C97.4633 64.9907 97.0125 64.0781 96.142 63.7263L96.1024 63.7103C95.2327 63.359 94.2736 63.702 93.9608 64.4763Z" fill="#BA3A26"/>
<path fill-rule="evenodd" clip-rule="evenodd" d="M61.95 54.7745L57.7981 50.6658L63.6389 50.5943L65.0215 51.1533L63.3327 55.3332L61.95 54.7745Z" fill="#FFE9CC"/>
<path fill-rule="evenodd" clip-rule="evenodd" d="M57.7984 50.6661L59.6749 50.6134L59.112 52.0068L57.7984 50.6661Z" fill="#78706A"/>
<path fill-rule="evenodd" clip-rule="evenodd" d="M61.9238 54.2335C62.0302 53.9701 62.3667 53.903 62.5084 53.5524C62.5312 53.4957 62.5422 53.444 62.5467 53.3942L62.8762 53.5273L94.2 66.183L93.6371 67.5764L62.3132 54.9207L62.0057 54.7965C62.0057 54.7965 61.8177 54.4961 61.9238 54.2335Z" fill="#FFD399"/>
<path fill-rule="evenodd" clip-rule="evenodd" d="M63.1908 51.861C63.3322 51.511 63.1374 51.2273 63.2433 50.9653C63.3497 50.7018 63.6937 50.6162 63.6937 50.6162L64.0012 50.7405L95.325 63.3961L94.7621 64.7895L63.4382 52.1339L63.1087 52.0007C63.1398 51.9625 63.1678 51.9177 63.1908 51.861Z" fill="#FFD399"/>
<path fill-rule="evenodd" clip-rule="evenodd" d="M62.5839 52.5984C62.7337 52.2277 62.9885 52.2175 63.1504 52.0173L63.4801 52.1505L94.7625 64.7894L94.1996 66.1828L62.9171 53.5439L62.5874 53.4107C62.61 53.1543 62.4341 52.9692 62.5839 52.5984Z" fill="#D87F0A"/>
<rect width="4.50847" height="0.860058" transform="matrix(-0.374607 0.927184 0.927184 0.374607 95.3242 63.3962)" fill="#59514B"/>
<path d="M74.4743 56.4748C75.8412 55.108 78.0573 55.108 79.4241 56.4748L88.6165 65.6672C89.9833 67.0341 89.9833 69.2501 88.6165 70.617C87.2496 71.9838 85.0336 71.9838 83.6667 70.617L74.4743 61.4246C73.1075 60.0577 73.1075 57.8417 74.4743 56.4748Z" fill="#E7E9E9"/>
<path fill-rule="evenodd" clip-rule="evenodd" d="M7.2715 82L25 88.3939L20.2925 102H0L7.2715 82Z" fill="#CCDEE6"/>
<path fill-rule="evenodd" clip-rule="evenodd" d="M7.02416 81L26 87.4698L23.9758 93L5 86.5302L7.02416 81Z" fill="#669DB4"/>
<path fill-rule="evenodd" clip-rule="evenodd" d="M8.05747 84.667C8.24158 84.1462 8.81299 83.8734 9.33297 84.0575C9.85379 84.2408 10.1266 84.8122 9.94253 85.333C9.75925 85.8538 9.18784 86.1266 8.66703 85.9425C8.14621 85.7584 7.87336 85.187 8.05747 84.667Z" fill="#3E3832"/>
<path fill-rule="evenodd" clip-rule="evenodd" d="M102.728 82L85 88.3939L89.7075 102H110L102.728 82Z" fill="#CCDEE6"/>
<path fill-rule="evenodd" clip-rule="evenodd" d="M102.976 81L84 87.4698L86.0242 93L105 86.5302L102.976 81Z" fill="#669DB4"/>
<path fill-rule="evenodd" clip-rule="evenodd" d="M101.943 84.667C101.758 84.1462 101.187 83.8734 100.667 84.0575C100.146 84.2408 99.8734 84.8122 100.057 85.333C100.241 85.8538 100.812 86.1266 101.333 85.9425C101.854 85.7584 102.127 85.187 101.943 84.667Z" fill="#3E3832"/>
</svg>
