<svg width="110" height="102" viewBox="0 0 110 102" fill="none" xmlns="http://www.w3.org/2000/svg">
<path fill-rule="evenodd" clip-rule="evenodd" d="M79.4291 82H32.5709C30.5988 82 29 80.3805 29 78.3829V12.6171C29 10.6205 30.5988 9 32.5709 9H79.4291C81.4012 9 83 10.6205 83 12.6171V78.3829C83 80.3805 81.4012 82 79.4291 82Z" fill="#59514B"/>
<path fill-rule="evenodd" clip-rule="evenodd" d="M33 68H79V13H33V68Z" fill="#E7E9E9"/>
<path fill-rule="evenodd" clip-rule="evenodd" d="M33 15H79V13H33V15Z" fill="#3E3832"/>
<path fill-rule="evenodd" clip-rule="evenodd" d="M33 68H79V64H33V68Z" fill="#3E3832"/>
<path fill-rule="evenodd" clip-rule="evenodd" d="M33 22H79V15H33V22Z" fill="white"/>
<path fill-rule="evenodd" clip-rule="evenodd" d="M33 34H79V32H33V34Z" fill="white"/>
<path fill-rule="evenodd" clip-rule="evenodd" d="M33 32H79V22H33V32Z" fill="#99BDCD"/>
<rect x="36" y="39" width="12" height="10" fill="white"/>
<rect x="50" y="39" width="12" height="10" fill="white"/>
<rect x="64" y="39" width="12" height="10" fill="white"/>
<rect x="36" y="51" width="12" height="1" fill="#78706A"/>
<rect x="36" y="53" width="12" height="1" fill="#78706A"/>
<rect x="36" y="55" width="12" height="1" fill="#78706A"/>
<rect x="50" y="51" width="12" height="1" fill="#78706A"/>
<rect x="50" y="53" width="12" height="1" fill="#78706A"/>
<rect x="50" y="55" width="12" height="1" fill="#78706A"/>
<rect x="64" y="51" width="12" height="1" fill="#78706A"/>
<rect x="64" y="53" width="12" height="1" fill="#78706A"/>
<rect x="64" y="55" width="12" height="1" fill="#78706A"/>
<path fill-rule="evenodd" clip-rule="evenodd" d="M56.5 20C57.3284 20 58 19.3284 58 18.5C58 17.6716 57.3284 17 56.5 17C55.6716 17 55 17.6716 55 18.5C55 19.3284 55.6716 20 56.5 20Z" fill="#C30000"/>
<path fill-rule="evenodd" clip-rule="evenodd" d="M60 74.9995C60 77.2083 58.2084 79 55.9995 79C53.7905 79 52 77.2083 52 74.9995C52 72.7907 53.7905 71 55.9995 71C58.2084 71 60 72.7907 60 74.9995Z" fill="#78706A"/>
<path fill-rule="evenodd" clip-rule="evenodd" d="M86.6879 58.7931V58.9164H86.2682V55.8796C86.2682 54.709 85.3013 53.7619 84.1117 53.7619C82.9202 53.7619 81.9552 54.709 81.9552 55.8796V58.9164H81.5335V52.2859C81.5335 51.1172 80.5675 50.1672 79.3769 50.1672C78.1854 50.1672 77.2194 51.1172 77.2194 52.2859V58.9164H76.7987V44.1186C76.7987 42.95 75.8328 42 74.6422 42C73.4507 42 72.4847 42.95 72.4847 44.1186V64.49C72.4847 64.7819 72.5465 65.0594 72.6534 65.3128L72.4847 65.8562C72.4847 65.8562 71.9561 66.0142 71.4295 65.2184C70.9009 64.4187 69.3181 60.6708 69.3181 60.6708C69.3181 60.6708 67.2086 56.2457 65.2581 57.0434C63.3124 57.8402 64.2038 60.7498 64.2038 60.7498C64.2038 60.7498 65.1973 65.3407 65.7474 67.5287C66.4417 70.2977 68.0608 73.1129 69.3995 75.1892C70.7401 77.2606 73.2957 80.2878 74.1901 80.2878L74.3941 84H88.5591V81.3688C88.5591 80.8302 89.273 80.3591 89.6339 80.1558C90.4332 79.8851 91 79.2212 91 78.4408V58.7931C91 57.7737 90.036 56.9471 88.8435 56.9471C87.6549 56.9471 86.6879 57.7737 86.6879 58.7931Z" fill="#E7E9E9"/>
<path fill-rule="evenodd" clip-rule="evenodd" d="M73 102H92V87H73V102Z" fill="#CCDEE6"/>
<path fill-rule="evenodd" clip-rule="evenodd" d="M73 89H92V83H73V89Z" fill="#669DB4"/>
<path fill-rule="evenodd" clip-rule="evenodd" d="M87.9988 85C87.447 85 87 85.4475 87 85.9996C87 86.5517 87.447 87 87.9988 87C88.5513 87 89 86.5517 89 85.9996C89 85.4475 88.5513 85 87.9988 85Z" fill="#3E3832"/>
<path fill-rule="evenodd" clip-rule="evenodd" d="M29 53V63.1039V63.977C29 63.977 29.1115 64.6484 29.26 65.6172L32.372 61.2431C33.3283 59.8996 35.1758 59.598 36.4968 60.5698L36.7768 60.7742C38.0988 61.746 38.3956 63.6235 37.4393 64.9669L28.9681 76.8718C28.8159 77.286 28.6555 77.6889 28.493 78.0749C28.1204 78.9603 27.2036 80.2709 26.3264 81.5248C25.377 82.8819 24.4741 84.1726 24.358 84.7857C24.1347 85.9665 23.9115 87 23.9115 87L10 82.1288L14.5775 66.4999C14.6493 66.2545 14.7756 66.0302 14.9483 65.8409C16.5557 64.0843 25.5218 54.7986 27.0413 53.2263C27.1817 53.0801 27.3747 53 27.5777 53H29Z" fill="#E7E9E9"/>
<path fill-rule="evenodd" clip-rule="evenodd" d="M7.2715 82L25 88.3939L20.2925 102H0L7.2715 82Z" fill="#CCDEE6"/>
<path fill-rule="evenodd" clip-rule="evenodd" d="M7.02416 81L26 87.4698L23.9758 93L5 86.5302L7.02416 81Z" fill="#669DB4"/>
<path fill-rule="evenodd" clip-rule="evenodd" d="M8.05747 84.667C8.24158 84.1462 8.81299 83.8734 9.33297 84.0575C9.85379 84.2408 10.1266 84.8122 9.94253 85.333C9.75925 85.8538 9.18784 86.1266 8.66703 85.9425C8.14621 85.7584 7.87336 85.187 8.05747 84.667Z" fill="#3E3832"/>
</svg>
